<svg xmlns="http://www.w3.org/2000/svg" xmlns:xlink="http://www.w3.org/1999/xlink" version="1.1" class="marks" width="622" height="232" viewBox="0 0 622 232"><rect width="622" height="232" fill="white"/><g fill="none" stroke-miterlimit="10" transform="translate(44,10)"><g class="mark-group role-frame root" role="graphics-object" aria-roledescription="group mark container"><g transform="translate(0,0)"><path class="background" aria-hidden="true" d="M0.5,0.5h500v200h-500Z" stroke="#ddd"/><g><g class="mark-group role-axis" role="graphics-symbol" aria-roledescription="axis" aria-label="X-axis for a time scale with values from Wednesday, 01 January 2020, 12:00:00 AM to Tuesday, 07 April 2020, 12:00:00 AM"><g transform="translate(0.5,200.5)"><path class="background" aria-hidden="true" d="M0,0h0v0h0Z" pointer-events="none"/><g><g class="mark-rule role-axis-grid" pointer-events="none"><line transform="translate(21,-200)" x2="0" y2="200" stroke="#ddd" stroke-width="1" opacity="1"/><line transform="translate(57,-200)" x2="0" y2="200" stroke="#ddd" stroke-width="1" opacity="1"/><line transform="translate(93,-200)" x2="0" y2="200" stroke="#ddd" stroke-width="1" opacity="1"/><line transform="translate(129,-200)" x2="0" y2="200" stroke="#ddd" stroke-width="1" opacity="1"/><line transform="translate(165,-200)" x2="0" y2="200" stroke="#ddd" stroke-width="1" opacity="1"/><line transform="translate(201,-200)" x2="0" y2="200" stroke="#ddd" stroke-width="1" opacity="1"/><line transform="translate(237,-200)" x2="0" y2="200" stroke="#ddd" stroke-width="1" opacity="1"/><line transform="translate(273,-200)" x2="0" y2="200" stroke="#ddd" stroke-width="1" opacity="1"/><line transform="translate(309,-200)" x2="0" y2="200" stroke="#ddd" stroke-width="1" opacity="1"/><line transform="translate(346,-200)" x2="0" y2="200" stroke="#ddd" stroke-width="1" opacity="1"/><line transform="translate(382,-200)" x2="0" y2="200" stroke="#ddd" stroke-width="1" opacity="1"/><line transform="translate(418,-200)" x2="0" y2="200" stroke="#ddd" stroke-width="1" opacity="1"/><line transform="translate(454,-200)" x2="0" y2="200" stroke="#ddd" stroke-width="1" opacity="1"/><line transform="translate(490,-200)" x2="0" y2="200" stroke="#ddd" stroke-width="1" opacity="1"/></g></g><path class="foreground" aria-hidden="true" d="" pointer-events="none" display="none"/></g></g><g class="mark-group role-axis" role="graphics-symbol" aria-roledescription="axis" aria-label="X-axis for a time scale with values from Wednesday, 01 January 2020, 12:00:00 AM to Tuesday, 07 April 2020, 12:00:00 AM"><g transform="translate(0.5,200.5)"><path class="background" aria-hidden="true" d="M0,0h0v0h0Z" pointer-events="none"/><g><g class="mark-rule role-axis-tick" pointer-events="none"><line transform="translate(21,0)" x2="0" y2="5" stroke="#888" stroke-width="1" opacity="1"/><line transform="translate(57,0)" x2="0" y2="5" stroke="#888" stroke-width="1" opacity="1"/><line transform="translate(93,0)" x2="0" y2="5" stroke="#888" stroke-width="1" opacity="1"/><line transform="translate(129,0)" x2="0" y2="5" stroke="#888" stroke-width="1" opacity="1"/><line transform="translate(165,0)" x2="0" y2="5" stroke="#888" stroke-width="1" opacity="1"/><line transform="translate(201,0)" x2="0" y2="5" stroke="#888" stroke-width="1" opacity="1"/><line transform="translate(237,0)" x2="0" y2="5" stroke="#888" stroke-width="1" opacity="1"/><line transform="translate(273,0)" x2="0" y2="5" stroke="#888" stroke-width="1" opacity="1"/><line transform="translate(309,0)" x2="0" y2="5" stroke="#888" stroke-width="1" opacity="1"/><line transform="translate(346,0)" x2="0" y2="5" stroke="#888" stroke-width="1" opacity="1"/><line transform="translate(382,0)" x2="0" y2="5" stroke="#888" stroke-width="1" opacity="1"/><line transform="translate(418,0)" x2="0" y2="5" stroke="#888" stroke-width="1" opacity="1"/><line transform="translate(454,0)" x2="0" y2="5" stroke="#888" stroke-width="1" opacity="1"/><line transform="translate(490,0)" x2="0" y2="5" stroke="#888" stroke-width="1" opacity="1"/></g><g class="mark-text role-axis-label" pointer-events="none"><text text-anchor="middle" transform="translate(20.62741727546197,15)" font-family="sans-serif" font-size="10px" fill="#000" opacity="1">Jan 05</text><text text-anchor="middle" transform="translate(56.72539750752041,15)" font-family="sans-serif" font-size="10px" fill="#000" opacity="1">Jan 12</text><text text-anchor="middle" transform="translate(92.82337773957886,15)" font-family="sans-serif" font-size="10px" fill="#000" opacity="1">Jan 19</text><text text-anchor="middle" transform="translate(128.92135797163732,15)" font-family="sans-serif" font-size="10px" fill="#000" opacity="1">Jan 26</text><text text-anchor="middle" transform="translate(165.01933820369575,15)" font-family="sans-serif" font-size="10px" fill="#000" opacity="1">Feb 02</text><text text-anchor="middle" transform="translate(201.1173184357542,15)" font-family="sans-serif" font-size="10px" fill="#000" opacity="1">Feb 09</text><text text-anchor="middle" transform="translate(237.21529866781262,15)" font-family="sans-serif" font-size="10px" fill="#000" opacity="1">Feb 16</text><text text-anchor="middle" transform="translate(273.3132788998711,15)" font-family="sans-serif" font-size="10px" fill="#000" opacity="1">Feb 23</text><text text-anchor="middle" transform="translate(309.4112591319295,15)" font-family="sans-serif" font-size="10px" fill="#000" opacity="1">March</text><text text-anchor="middle" transform="translate(345.509239363988,15)" font-family="sans-serif" font-size="10px" fill="#000" opacity="1">Mar 08</text><text text-anchor="middle" transform="translate(381.60721959604643,15)" font-family="sans-serif" font-size="10px" fill="#000" opacity="1">Mar 15</text><text text-anchor="middle" transform="translate(417.7051998281048,15)" font-family="sans-serif" font-size="10px" fill="#000" opacity="1">Mar 22</text><text text-anchor="middle" transform="translate(453.8031800601633,15)" font-family="sans-serif" font-size="10px" fill="#000" opacity="1">Mar 29</text><text text-anchor="middle" transform="translate(489.686291362269,15)" font-family="sans-serif" font-size="10px" fill="#000" opacity="1">Apr 05</text></g><g class="mark-rule role-axis-domain" pointer-events="none"><line transform="translate(0,0)" x2="500" y2="0" stroke="#888" stroke-width="1" opacity="1"/></g></g><path class="foreground" aria-hidden="true" d="" pointer-events="none" display="none"/></g></g><g class="mark-group role-axis" role="graphics-symbol" aria-roledescription="axis" aria-label="Y-axis titled 'value' for a linear scale with values from 0 to 260"><g transform="translate(0.5,0.5)"><path class="background" aria-hidden="true" d="M0,0h0v0h0Z" pointer-events="none"/><g><g class="mark-rule role-axis-tick" pointer-events="none"><line transform="translate(0,200)" x2="-5" y2="0" stroke="#888" stroke-width="1" opacity="1"/><line transform="translate(0,162)" x2="-5" y2="0" stroke="#888" stroke-width="1" opacity="1"/><line transform="translate(0,123)" x2="-5" y2="0" stroke="#888" stroke-width="1" opacity="1"/><line transform="translate(0,85)" x2="-5" y2="0" stroke="#888" stroke-width="1" opacity="1"/><line transform="translate(0,46)" x2="-5" y2="0" stroke="#888" stroke-width="1" opacity="1"/><line transform="translate(0,8)" x2="-5" y2="0" stroke="#888" stroke-width="1" opacity="1"/></g><g class="mark-text role-axis-label" pointer-events="none"><text text-anchor="end" transform="translate(-7,203)" font-family="sans-serif" font-size="10px" fill="#000" opacity="1">0</text><text text-anchor="end" transform="translate(-7,164.53846153846155)" font-family="sans-serif" font-size="10px" fill="#000" opacity="1">50</text><text text-anchor="end" transform="translate(-7,126.07692307692308)" font-family="sans-serif" font-size="10px" fill="#000" opacity="1">100</text><text text-anchor="end" transform="translate(-7,87.61538461538463)" font-family="sans-serif" font-size="10px" fill="#000" opacity="1">150</text><text text-anchor="end" transform="translate(-7,49.153846153846146)" font-family="sans-serif" font-size="10px" fill="#000" opacity="1">200</text><text text-anchor="end" transform="translate(-7,10.692307692307686)" font-family="sans-serif" font-size="10px" fill="#000" opacity="1">250</text></g><g class="mark-rule role-axis-domain" pointer-events="none"><line transform="translate(0,200)" x2="0" y2="-200" stroke="#888" stroke-width="1" opacity="1"/></g><g class="mark-text role-axis-title" pointer-events="none"><text text-anchor="middle" transform="translate(-27.6845703125,100) rotate(-90) translate(0,-2)" font-family="sans-serif" font-size="11px" font-weight="bold" fill="#000" opacity="1">value</text></g></g><path class="foreground" aria-hidden="true" d="" pointer-events="none" display="none"/></g></g><g class="mark-group role-axis" role="graphics-symbol" aria-roledescription="axis" aria-label="Y-axis titled 'Number of tweets' for a linear scale with values from 0 to 20,000,000"><g transform="translate(500.5,0.5)"><path class="background" aria-hidden="true" d="M0,0h0v0h0Z" pointer-events="none"/><g><g class="mark-rule role-axis-tick" pointer-events="none"><line transform="translate(0,200)" x2="5" y2="0" stroke="#888" stroke-width="1" opacity="1"/><line transform="translate(0,150)" x2="5" y2="0" stroke="#888" stroke-width="1" opacity="1"/><line transform="translate(0,100)" x2="5" y2="0" stroke="#888" stroke-width="1" opacity="1"/><line transform="translate(0,50)" x2="5" y2="0" stroke="#888" stroke-width="1" opacity="1"/><line transform="translate(0,0)" x2="5" y2="0" stroke="#888" stroke-width="1" opacity="1"/></g><g class="mark-text role-axis-label" pointer-events="none"><text text-anchor="start" transform="translate(7,203)" font-family="sans-serif" font-size="10px" fill="#000" opacity="1">0</text><text text-anchor="start" transform="translate(7,153)" font-family="sans-serif" font-size="10px" fill="#000" opacity="1">5,000,000</text><text text-anchor="start" transform="translate(7,103)" font-family="sans-serif" font-size="10px" fill="#000" opacity="1">10,000,000</text><text text-anchor="start" transform="translate(7,53)" font-family="sans-serif" font-size="10px" fill="#000" opacity="1">15,000,000</text><text text-anchor="start" transform="translate(7,3)" font-family="sans-serif" font-size="10px" fill="#000" opacity="1">20,000,000</text></g><g class="mark-rule role-axis-domain" pointer-events="none"><line transform="translate(0,200)" x2="0" y2="-200" stroke="#888" stroke-width="1" opacity="1"/></g><g class="mark-text role-axis-title" pointer-events="none"><text text-anchor="middle" transform="translate(61.048828125,100) rotate(90) translate(0,-2)" font-family="sans-serif" font-size="11px" font-weight="bold" fill="#1da1f2" opacity="1">Number of tweets</text></g></g><path class="foreground" aria-hidden="true" d="" pointer-events="none" display="none"/></g></g><g class="mark-line role-mark layer_0_marks" role="graphics-symbol" aria-roledescription="line mark container"><path d="M0,200C1.7189514396218308,200,3.4379028792436612,200,5.156854318865492,200C6.875805758487323,200,8.594757198109154,200,10.313708637730985,200C12.032660077352816,200,13.751611516974645,200,15.470562956596476,200C17.189514396218307,200,18.90846583584014,200,20.62741727546197,200C22.3463687150838,200,24.06532015470563,200,25.78427159432746,200C27.50322303394929,200,29.222174473571123,200,30.941125913192952,200C32.66007735281478,200,34.379028792436614,200,36.09798023205845,200C37.81693167168028,200,39.535883111302105,199.23076923076923,41.25483455092394,199.23076923076923C42.97378599054577,199.23076923076923,44.6927374301676,200,46.41168886978943,200C48.13064030941126,200,49.84959174903309,200,51.56854318865492,200C53.287494628276754,200,55.00644606789858,200,56.72539750752041,200C58.444348947142245,200,60.16330038676407,199.23076923076923,61.882251826385904,199.23076923076923C63.60120326600774,199.23076923076923,65.32015470562956,200,67.0391061452514,200C68.75805758487323,200,70.47700902449506,199.23076923076923,72.1959604641169,199.23076923076923C73.91491190373873,199.23076923076923,75.63386334336055,199.23076923076923,77.35281478298238,199.23076923076923C79.07176622260421,199.23076923076923,80.79071766222604,198.46153846153845,82.50966910184788,198.46153846153845C84.22862054146971,198.46153846153845,85.94757198109153,200,87.66652342071336,200C89.3854748603352,200,91.10442629995703,200,92.82337773957886,200C94.54232917920069,200,96.26128061882251,198.46153846153848,97.98023205844434,197.6923076923077C99.69918349806618,196.92307692307693,101.41813493768801,196.2820512820513,103.13708637730984,195.3846153846154C104.85603781693167,194.4871794871795,106.5749892565535,194.10256410256412,108.29394069617533,192.30769230769232C110.01289213579716,190.51282051282053,111.73184357541899,184.6153846153846,113.45079501504082,184.6153846153846C115.16974645466266,184.6153846153846,116.88869789428448,190.38461538461542,118.60764933390631,192.30769230769232C120.32660077352814,194.23076923076925,122.04555221314997,196.15384615384613,123.76450365277181,196.15384615384613C125.48345509239364,196.15384615384613,127.20240653201549,195,128.92135797163732,193.07692307692307C130.64030941125915,191.15384615384616,132.35926085088096,185.64102564102564,134.0782122905028,184.6153846153846C135.79716373012462,183.5897435897436,137.51611516974646,184.1025641025641,139.2350666093683,183.07692307692307C140.95401804899012,182.05128205128204,142.67296948861195,174.6153846153846,144.3919209282338,174.6153846153846C146.11087236785562,174.6153846153846,147.82982380747745,174.87179487179486,149.5487752470993,175.3846153846154C151.26772668672112,175.8974358974359,152.98667812634292,182.17948717948718,154.70562956596476,185.3846153846154C156.4245810055866,188.5897435897436,158.14353244520842,194.6153846153846,159.86248388483025,194.6153846153846C161.5814353244521,194.6153846153846,163.30038676407392,194.6153846153846,165.01933820369575,194.6153846153846C166.7382896433176,194.6153846153846,168.45724108293942,187.30769230769232,170.17619252256125,184.6153846153846C171.89514396218308,181.92307692307693,173.6140954018049,178.46153846153845,175.33304684142672,178.46153846153845C177.05199828104855,178.46153846153845,178.7709497206704,183.2051282051282,180.48990116029222,184.6153846153846C182.20885259991405,186.02564102564102,183.92780403953589,186.92307692307693,185.64675547915772,186.92307692307693C187.36570691877955,186.92307692307693,189.08465835840138,183.07692307692307,190.80360979802322,183.07692307692307C192.52256123764505,183.07692307692307,194.24151267726685,191.02564102564105,195.9604641168887,191.53846153846155C197.67941555651052,192.05128205128207,199.39836699613238,192.30769230769232,201.1173184357542,192.30769230769232C202.83626987537605,192.30769230769232,204.55522131499785,191.02564102564102,206.27417275461968,190C207.99312419424152,188.97435897435898,209.71207563386335,187.05128205128207,211.43102707348518,186.15384615384616C213.14997851310702,185.25641025641028,214.86892995272882,185,216.58788139235065,184.6153846153846C218.30683283197249,184.23076923076923,220.02578427159435,183.84615384615384,221.74473571121618,183.84615384615384C223.463687150838,183.84615384615384,225.18263859045982,187.56410256410257,226.90159003008165,189.23076923076923C228.62054146970348,190.8974358974359,230.33949290932532,192.82051282051282,232.05844434894715,193.84615384615384C233.77739578856898,194.87179487179486,235.49634722819079,195.3846153846154,237.21529866781262,195.3846153846154C238.93425010743445,195.3846153846154,240.6532015470563,186.15384615384616,242.37215298667815,186.15384615384616C244.09110442629998,186.15384615384616,245.81005586592178,186.4102564102564,247.52900730554362,186.92307692307693C249.24795874516545,187.43589743589746,250.96691018478725,189.74358974358972,252.68586162440909,190.76923076923075C254.40481306403095,191.79487179487177,256.1237645036528,193.07692307692307,257.84271594327464,193.07692307692307C259.5616673828965,193.07692307692307,261.28061882251825,185.3846153846154,262.9995702621401,185.3846153846154C264.7185217017619,185.3846153846154,266.43747314138375,196.92307692307693,268.1564245810056,196.92307692307693C269.8753760206274,196.92307692307693,271.59432746024925,196.92307692307693,273.3132788998711,196.92307692307693C275.0322303394929,196.92307692307693,276.75118177911475,186.92307692307693,278.4701332187366,185.3846153846154C280.1890846583584,183.84615384615384,281.90803609798024,184.6153846153846,283.6269875376021,183.07692307692307C285.3459389772239,181.53846153846152,287.06489041684574,166.02564102564105,288.7838418564676,160C290.5027932960894,153.97435897435903,292.2217447357112,146.92307692307693,293.940696175333,146.92307692307693C295.65964761495485,146.92307692307693,297.37859905457674,161.53846153846152,299.0975504941986,166.92307692307693C300.8165019338204,172.30769230769224,302.5354533734422,177.6923076923077,304.254404813064,179.23076923076923C305.97335625268585,180.76923076923077,307.6923076923077,181.53846153846155,309.4112591319295,181.53846153846155C311.13021057155134,181.53846153846155,312.8491620111732,152.3076923076923,314.568113450795,152.3076923076923C316.28706489041684,152.3076923076923,318.0060163300387,162.30769230769232,319.7249677696605,162.30769230769232C321.44391920928234,162.30769230769232,323.1628706489042,150,324.881822088526,150C326.60077352814784,150,328.3197249677697,161.53846153846155,330.0386764073915,161.53846153846155C331.75762784701334,161.53846153846155,333.4765792866351,153.84615384615384,335.19553072625695,153.84615384615384C336.9144821658788,153.84615384615384,338.63343360550067,171.53846153846155,340.3523850451225,171.53846153846155C342.07133648474434,171.53846153846155,343.79028792436617,171.02564102564102,345.509239363988,170C347.22819080360983,168.97435897435898,348.9471422432316,139.23076923076917,350.66609368285344,131.53846153846155C352.3850451224753,123.84615384615385,354.1039965620971,121.53846153846153,355.82294800171894,120C357.5418994413408,118.46153846153847,359.2608508809626,119.23076923076923,360.97980232058444,117.6923076923077C362.6987537602063,116.15384615384616,364.4177051998281,57.692307692307686,366.13665663944994,57.692307692307686C367.85560807907177,57.692307692307686,369.5745595186936,64.35897435897435,371.29351095831544,77.69230769230768C373.01246239793727,91.02564102564087,374.73141383755905,162.30769230769232,376.4503652771809,162.30769230769232C378.1693167168027,162.30769230769232,379.8882681564246,149.8717948717951,381.60721959604643,130C383.32617103566827,110.12820512820514,385.0451224752901,63.076923076923094,386.76407391491193,43.07692307692308C388.48302535453377,23.07692307692329,390.20197679415554,10.000000000000009,391.9209282337774,10.000000000000009C393.6398796733992,10.000000000000009,395.35883111302104,14.615384615384608,397.0777825526429,14.615384615384608C398.7967339922647,14.615384615384608,400.5156854318866,10.769230769230775,402.2346368715084,10.769230769230775C403.95358831113026,10.769230769230775,405.67253975075204,35.000000000000185,407.39149119037387,56.92307692307692C409.1104426299957,78.8461538461539,410.82939406961754,142.30769230769232,412.54834550923937,142.30769230769232C414.2672969488612,142.30769230769232,415.986248388483,135.64102564102566,417.7051998281048,122.30769230769232C419.42415126772664,108.9743589743587,421.14310270734853,33.589743589743726,422.86205414697037,22.307692307692317C424.5810055865922,11.02564102564103,426.29995702621403,8.974358974359019,428.01890846583586,5.384615384615388C429.7378599054577,1.7948717948717956,431.4568113450795,0,433.1757627847013,0C434.89471422432314,0,436.61366566394497,1.025641025641022,438.3326171035668,3.076923076923066C440.05156854318864,5.128205128205133,441.7705199828105,16.410256410255936,443.48947142243236,38.46153846153846C445.2084228620542,60.5128205128205,446.92737430167597,135.3846153846154,448.6463257412978,135.3846153846154C450.36527718091963,135.3846153846154,452.08422862054147,129.23076923076923,453.8031800601633,116.9230769230769C455.4505085231342,105.1282051282051,457.09783698610516,43.07692307692308,458.74516544907607,43.07692307692308C460.4641168886979,43.07692307692308,462.18306832831973,89.23076923076923,463.90201976794157,89.23076923076923C465.6209712075634,89.23076923076923,467.3399226471852,0,469.058874086807,0C470.77782552642884,0,472.49677696605073,0,474.21572840567256,0C475.9346798452944,0,477.6536312849162,6.410256410256409,479.372582724538,19.23076923076923C481.09153416415984,32.05128205128219,482.8104856037817,95.38461538461539,484.5294370434035,107.6923076923077C486.24838848302534,120,487.96733992264717,126.15384615384615,489.686291362269,126.15384615384615C491.40524280189084,126.15384615384615,493.12419424151267,87.17948717948718,494.8431456811345,70C496.56209712075633,52.820512820512825,498.28104856037817,37.948717948717956,500,23.076923076923084" stroke="#fc0303" stroke-width="2"/></g><g class="mark-line role-mark layer_1_marks" role="graphics-symbol" aria-roledescription="line mark container" pointer-events="none"><path d="M0,199.99937C1.7189514396218308,199.99948,3.4379028792436612,199.99959,5.156854318865492,199.99959C6.875805758487323,199.99959,8.594757198109154,199.99927833333336,10.313708637730985,199.99906000000001C12.032660077352816,199.9988416666667,13.751611516974645,199.99828,15.470562956596476,199.99828C17.189514396218307,199.99828,18.90846583584014,199.99858666666665,20.62741727546197,199.99873C22.3463687150838,199.99887333333334,24.06532015470563,199.99914,25.78427159432746,199.99914C27.50322303394929,199.99914,29.222174473571123,199.99762833333335,30.941125913192952,199.99707C32.66007735281478,199.99651166666666,34.379028792436614,199.99664333333334,36.09798023205845,199.99579C37.81693167168028,199.99493666666666,39.535883111302105,199.96549,41.25483455092394,199.96549C42.97378599054577,199.96549,44.6927374301676,199.97653,46.41168886978943,199.97653C48.13064030941126,199.97653,49.84959174903309,199.97498,51.56854318865492,199.97188C53.287494628276754,199.96878,55.00644606789858,199.92232166666668,56.72539750752041,199.89955C58.444348947142245,199.87677833333333,60.16330038676407,199.83525,61.882251826385904,199.83525C63.60120326600774,199.83525,65.32015470562956,199.89977000000002,67.0391061452514,199.89977000000002C68.75805758487323,199.89977000000002,70.47700902449506,199.89655666666667,72.1959604641169,199.89013C73.91491190373873,199.88370333333333,75.63386334336055,199.77717333333334,77.35281478298238,199.77658C79.07176622260421,199.77598666666665,80.79071766222604,199.77628333333334,82.50966910184788,199.77569C84.22862054146971,199.77509666666666,85.94757198109153,199.76568,87.66652342071336,199.76568C89.3854748603352,199.76568,91.10442629995703,199.79013,92.82337773957886,199.79013C94.54232917920069,199.79013,96.26128061882251,199.39688833333335,97.98023205844434,198.99876C99.69918349806618,198.60063166666666,101.41813493768801,198.08219166666666,103.13708637730984,197.40135999999998C104.85603781693167,196.7205283333333,106.5749892565535,195.99011833333333,108.29394069617533,194.91377C110.01289213579716,193.83742166666667,111.73184357541899,192.01764,113.45079501504082,190.94326999999998C115.16974645466266,189.8689,116.88869789428448,189.51940166666665,118.60764933390631,188.46755C120.32660077352814,187.41569833333332,122.04555221314997,185.50834,123.76450365277181,184.63216C125.48345509239364,183.75598,127.20240653201549,183.21047,128.92135797163732,183.21047C130.64030941125915,183.21047,132.35926085088096,185.32402000000002,134.0782122905028,185.32402000000002C135.79716373012462,185.32402000000002,137.51611516974646,185.22383666666667,139.2350666093683,185.02347C140.95401804899012,184.82310333333334,142.67296948861195,184.60399,144.3919209282338,183.76503C146.11087236785562,182.92606999999998,147.82982380747745,179.89024,149.5487752470993,179.89024C151.26772668672112,179.89024,152.98667812634292,179.93471,154.70562956596476,180.02365C156.4245810055866,180.11259,158.14353244520842,187.12036999999998,159.86248388483025,187.12036999999998C161.5814353244521,187.12036999999998,163.30038676407392,187.01524,165.01933820369575,187.01524C166.7382896433176,187.01524,168.45724108293942,189.97321333333335,170.17619252256125,189.99248C171.89514396218308,190.01174666666665,173.6140954018049,190.00211333333334,175.33304684142672,190.02138C177.05199828104855,190.04064666666665,178.7709497206704,191.96412999999998,180.48990116029222,191.96412999999998C182.20885259991405,191.96412999999998,183.92780403953589,191.86051,185.64675547915772,191.65327000000002C187.36570691877955,191.44603000000004,189.08465835840138,190.12437,190.80360979802322,190.12437C192.52256123764505,190.12437,194.24151267726685,191.92070999999996,195.9604641168887,191.96546999999998C197.67941555651052,192.01023,199.39836699613238,192.03261,201.1173184357542,192.03261C202.83626987537605,192.03261,204.55522131499785,191.99622666666667,206.27417275461968,191.92346C207.99312419424152,191.85069333333334,209.71207563386335,190.93020333333334,211.43102707348518,190.91373000000002C213.14997851310702,190.8972566666667,214.86892995272882,190.90549333333334,216.58788139235065,190.88902000000002C218.30683283197249,190.8725466666667,220.02578427159435,190.43123,221.74473571121618,190.43123C223.463687150838,190.43123,225.18263859045982,193.77278,226.90159003008165,193.77278C228.62054146970348,193.77278,230.33949290932532,193.75826333333333,232.05844434894715,193.75445C233.77739578856898,193.75063666666665,235.49634722819079,193.75235833333332,237.21529866781262,193.74873C238.93425010743445,193.74510166666667,240.6532015470563,193.73754,242.37215298667815,193.73268C244.09110442629998,193.72781999999998,245.81005586592178,193.71957,247.52900730554362,193.71957C249.24795874516545,193.71957,250.96691018478725,193.72814,252.68586162440909,193.73763C254.40481306403095,193.74712,256.1237645036528,193.77651,257.84271594327464,193.77651C259.5616673828965,193.77651,261.28061882251825,190.74557000000001,262.9995702621401,190.45679C264.7185217017619,190.16801,266.43747314138375,190.3124,268.1564245810056,190.02362C269.8753760206274,189.73484,271.59432746024925,188.7414,273.3132788998711,187.66488999999999C275.0322303394929,186.58837999999997,276.75118177911475,186.24932333333334,278.4701332187366,183.56456C280.1890846583584,180.87979666666666,281.90803609798024,175.46629166666668,283.6269875376021,171.55631C285.3459389772239,167.64632833333332,287.06489041684574,163.02640833333334,288.7838418564676,160.10467C290.5027932960894,157.1829316666667,292.2217447357112,156.85219333333328,293.940696175333,154.02588C295.65964761495485,151.19956666666664,297.37859905457674,143.14678999999998,299.0975504941986,143.14678999999998C300.8165019338204,143.14678999999998,302.5354533734422,149.9177366666667,304.254404813064,153.33879000000002C305.97335625268585,156.75984333333338,307.6923076923077,163.67311,309.4112591319295,163.67311C311.13021057155134,163.67311,312.8491620111732,158.26890999999998,314.568113450795,157.59278999999998C316.28706489041684,156.91666999999998,318.0060163300387,156.57861,319.7249677696605,156.57861C321.44391920928234,156.57861,323.1628706489042,156.76330000000002,324.881822088526,156.76330000000002C326.60077352814784,156.76330000000002,328.3197249677697,156.76324333333335,330.0386764073915,156.76313C331.75762784701334,156.76301666666663,333.4765792866351,154.53106000000002,335.19553072625695,154.18968C336.9144821658788,153.8483,338.63343360550067,153.67761,340.3523850451225,153.67761C342.07133648474434,153.67761,343.79028792436617,154.66523999999998,345.509239363988,154.66523999999998C347.22819080360983,154.66523999999998,348.9471422432316,142.39077333333333,350.66609368285344,136.13878000000003C352.3850451224753,129.88678666666667,354.1039965620971,123.04860500000001,355.82294800171894,117.15328000000001C357.5418994413408,111.25795500000001,359.2608508809626,111.69113,360.97980232058444,100.76683C362.6987537602063,89.84253,364.4177051998281,18.689106666666653,366.13665663944994,12.00277999999999C367.85560807907177,5.316453333333327,369.5745595186936,1.9732899999999942,371.29351095831544,1.9732899999999942C373.01246239793727,1.9732899999999942,374.73141383755905,29.205933333333366,376.4503652771809,31.768519999999988C378.1693167168027,34.33110666666667,379.8882681564246,35.61240000000001,381.60721959604643,35.61240000000001C383.32617103566827,35.61240000000001,385.0451224752901,28.994580000000006,386.76407391491193,27.72817999999999C388.48302535453377,26.46177999999999,390.20197679415554,25.828579999999988,391.9209282337774,25.828579999999988C393.6398796733992,25.828579999999988,395.35883111302104,34.38475999999999,397.0777825526429,34.38475999999999C398.7967339922647,34.38475999999999,400.5156854318866,34.17869,402.2346368715084,34.17869C403.95358831113026,34.17869,405.67253975075204,41.79611000000005,407.39149119037387,47.997409999999995C409.1104426299957,54.19871000000001,410.82939406961754,71.38649,412.54834550923937,71.38649C414.2672969488612,71.38649,415.986248388483,60.38254833333331,417.7051998281048,56.07439000000001C419.42415126772664,51.76623166666661,421.14310270734853,45.53754000000001,422.86205414697037,45.53754000000001C424.5810055865922,45.53754000000001,426.29995702621403,51.464961666666646,428.01890846583586,55.54159000000001C429.7378599054577,59.618218333333324,431.4568113450795,66.31544000000001,433.1757627847013,69.99731C434.89471422432314,73.67918000000003,436.61366566394497,77.44809,438.3326171035668,77.63280999999999C440.05156854318864,77.81752999999999,441.7705199828105,77.72516999999999,443.48947142243236,77.90988999999999C445.2084228620542,78.09460999999999,446.92737430167597,90.86064833333334,448.6463257412978,95.65329C450.36527718091963,100.44593166666671,452.08422862054147,106.66574,453.8031800601633,106.66574C455.4505085231342,106.66574,457.09783698610516,100.58654117612294,458.74516544907607,98.74286000000001C460.4641168886979,96.8190187727413,462.18306832831973,95.57568,463.90201976794157,95.57568C465.6209712075634,95.57568,467.3399226471852,95.70718333333333,469.058874086807,95.97019C470.77782552642884,96.23319666666667,472.49677696605073,100.57770666666666,474.21572840567256,102.32082C475.9346798452944,104.06393333333331,477.6536312849162,103.69017,479.372582724538,106.42887C481.09153416415984,109.16757000000004,482.8104856037817,117.49235666666667,484.5294370434035,120.71775C486.24838848302534,123.94314333333332,487.96733992264717,125.78123,489.686291362269,125.78123C491.40524280189084,125.78123,493.12419424151267,118.46033999999999,494.8431456811345,118.46033999999999C496.56209712075633,118.46033999999999,498.28104856037817,119.84344,500,121.22654000000001" stroke="#1da1f2" stroke-width="2"/></g></g><path class="foreground" aria-hidden="true" d="" display="none"/></g></g></g></svg>